# xmcd
#
# Track frame offsets:
#	150
#	5825
#	9892
#	23175
#	34947
#	45242
#	59150
#	69617
#	77385
#	87407
#	96850
#	108172
#	122675
#
# Disc length: 1733 seconds
#
# Revision: 0
# Processed by: cddbd v1.5.2PL0 Copyright (c) Steve Scherf et al.
# Submitted via: audiograbber 1.83.01
#
DISCID=9c06c30d
DTITLE=Various Artist - Aloha, The Music of Hawaii 2
DYEAR=1900
DGENRE=Hawaiian
TTITLE0=Sophisticated Hula
TTITLE1=Little Lani Jo
TTITLE2=Sari Nande
TTITLE3=Footprints In The Sun
TTITLE4=Nina Bobo
TTITLE5=Goro Gore No
TTITLE6=Mine Ha Ha
TTITLE7=Lime Lime
TTITLE8=Sejong Kere
TTITLE9=Honolulu
TTITLE10=Moon Over Maui
TTITLE11=Maori Chimes
TTITLE12=Kaneoche Kiss
EXTD=
EXTT0=
EXTT1=
EXTT2=
EXTT3=
EXTT4=
EXTT5=
EXTT6=
EXTT7=
EXTT8=
EXTT9=
EXTT10=
EXTT11=
EXTT12=
PLAYORDER=
